<svg width="46" height="46" viewBox="0 0 46 46" fill="none" xmlns="http://www.w3.org/2000/svg">
<path d="M33.0076 37.6848C33.7065 38.4794 34.921 38.5533 35.7115 37.8527C36.5078 37.1504 36.4352 35.9682 35.8777 35.1471C33.4861 31.625 30.6111 26.8334 26.3109 26.8334H19.5788C15.2777 26.8334 12.4027 31.625 10.0063 35.1476C9.44758 35.9689 9.38186 37.1527 10.1781 37.8533C10.539 38.1752 10.9916 38.3333 11.4442 38.3333C11.9769 38.3333 12.504 38.1145 12.8821 37.686C14.698 35.6317 17.0754 30.667 19.5788 30.667H26.3109C28.8143 30.667 31.1916 35.6317 33.0076 37.6848ZM22.9448 11.5002C25.0587 11.5002 26.7773 13.2194 26.7773 15.3338C26.7773 17.4477 25.0587 19.1668 22.9448 19.1668C20.831 19.1668 19.1124 17.4477 19.1124 15.3338C19.1124 13.2194 20.831 11.5002 22.9448 11.5002ZM22.9448 22.9998C27.1726 22.9998 30.6098 19.5609 30.6098 15.3338C30.6098 11.1061 27.1726 7.66666 22.9448 7.66666C18.7171 7.66666 15.2799 11.1061 15.2799 15.3338C15.2799 19.5609 18.7171 22.9998 22.9448 22.9998Z" fill="#111111"/>
</svg>
