<svg width="46" height="46" viewBox="0 0 46 46" fill="none" xmlns="http://www.w3.org/2000/svg">
<path d="M7.66669 23.0007C7.66669 24.0603 8.52037 24.9195 9.58031 24.9195H31.7932L27.393 29.3127C26.6482 30.0574 26.6482 31.2717 27.393 32.022C27.7712 32.3943 28.2582 32.5833 28.7509 32.5833C29.2436 32.5833 29.7306 32.3943 30.1088 32.022L37.7747 24.3582C37.9523 24.1806 38.0899 23.9687 38.1873 23.7339C38.3821 23.2642 38.3821 22.7372 38.1873 22.2675C38.0899 22.0327 37.9523 21.8208 37.7747 21.6432L30.1088 13.9794C29.3582 13.2291 28.1436 13.2291 27.393 13.9794C26.6482 14.7298 26.6482 15.9441 27.393 16.6887L31.7932 21.0819H9.58031C8.52037 21.0819 7.66669 21.9411 7.66669 23.0007Z" fill="black"/>
</svg>
