<svg width="46" height="46" viewBox="0 0 46 46" fill="none" xmlns="http://www.w3.org/2000/svg">
<path d="M28.5759 7.66667C29.3463 7.66667 29.9696 8.28996 29.9696 9.06033V13.2421H36.9393C37.7101 13.2421 38.3334 13.8658 38.3334 14.6362C38.3334 15.407 37.7101 16.0303 36.9393 16.0303H35.4611L34.1487 37.0293C34.1025 37.7625 33.4938 38.3333 32.7576 38.3333H13.2424C12.5058 38.3333 11.8975 37.7625 11.8513 37.0293L10.5389 16.0303H9.0603C8.28996 16.0303 7.66669 15.407 7.66669 14.6362C7.66669 13.8658 8.28996 13.2421 9.0603 13.2421H16.0301V9.06033C16.0301 8.28996 16.6537 7.66667 17.4241 7.66667H28.5759ZM32.6681 16.0303H13.3324L14.5519 35.546H31.4482L32.6681 16.0303ZM17.4241 20.2125C18.1949 20.2125 18.8181 20.8358 18.8181 21.6066V29.9714C18.8181 30.7422 18.1949 31.363 17.4241 31.363C16.6537 31.363 16.0301 30.7422 16.0301 29.9714V21.6066C16.0301 20.8358 16.6537 20.2125 17.4241 20.2125ZM22.9998 20.2125C23.7706 20.2125 24.3938 20.8358 24.3938 21.6066V29.9714C24.3938 30.7422 23.7706 31.363 22.9998 31.363C22.2295 31.363 21.6062 30.7422 21.6062 29.9714V21.6066C21.6062 20.8358 22.2295 20.2125 22.9998 20.2125ZM28.5759 20.2125C29.3463 20.2125 29.9696 20.8358 29.9696 21.6066V29.9714C29.9696 30.7422 29.3463 31.363 28.5759 31.363C27.8052 31.363 27.1819 30.7422 27.1819 29.9714V21.6066C27.1819 20.8358 27.8052 20.2125 28.5759 20.2125ZM27.1819 10.4544H18.8181V13.2421H27.1819V10.4544Z" fill="black"/>
</svg>
