<svg width="46" height="46" viewBox="0 0 46 46" fill="none" xmlns="http://www.w3.org/2000/svg">
<path d="M21.9386 7.66667C22.346 7.66667 22.7351 7.82845 23.0229 8.11579L37.8841 22.9775C38.4831 23.5765 38.4831 24.5467 37.8841 25.1457L25.1461 37.8842C24.8464 38.1835 24.4541 38.3333 24.0618 38.3333C23.6695 38.3333 23.2772 38.1835 22.978 37.8842L8.11626 23.0229C7.82846 22.7356 7.66669 22.3456 7.66669 21.9391V9.2001C7.66669 8.35318 8.35274 7.66667 9.20011 7.66667H21.9386ZM21.3039 10.7335H10.7335V21.3043L24.0618 34.6318L34.6317 24.0619L21.3039 10.7335ZM15.5693 15.5694C16.7416 14.3971 18.6431 14.3971 19.8153 15.5694C20.9876 16.7417 20.9876 18.6431 19.8153 19.8154C18.6431 20.9881 16.7416 20.9881 15.5693 19.8154C14.3966 18.6431 14.3966 16.7417 15.5693 15.5694Z" fill="black"/>
</svg>
