<svg width="46" height="46" viewBox="0 0 46 46" fill="none" xmlns="http://www.w3.org/2000/svg">
<path d="M19.8496 27.2995L16.7696 28.3894L17.794 25.1224L29.6704 12.5278L31.726 14.706L19.8496 27.2995ZM30.4851 9.94067C30.0347 9.46421 29.306 9.46421 28.8591 9.94067L15.9756 23.6015C15.8484 23.7346 15.7556 23.8979 15.7006 24.0776L13.8581 29.9315C13.7206 30.3689 13.8272 30.8537 14.1365 31.1818C14.3565 31.4115 14.6487 31.5391 14.9512 31.5391C15.0715 31.5391 15.1953 31.5172 15.3121 31.4735L20.8327 29.5232C21.0046 29.4612 21.1592 29.3628 21.283 29.2279L34.1631 15.5685C34.3797 15.3399 34.5 15.03 34.5 14.706C34.5 14.3823 34.3797 14.0724 34.1631 13.8438L30.4851 9.94067ZM32.2003 33.9779H12.6481C12.0156 33.9779 11.5 34.521 11.5 35.1954C11.5 35.8698 12.0156 36.4167 12.6481 36.4167H32.2003C32.8363 36.4167 33.3519 35.8698 33.3519 35.1954C33.3519 34.521 32.8363 33.9779 32.2003 33.9779Z" fill="black"/>
</svg>
