<svg width="46" height="46" viewBox="0 0 46 46" fill="none" xmlns="http://www.w3.org/2000/svg">
<path d="M29.1287 9.58334C26.1201 9.58334 24.157 10.7411 22.9997 11.7813C21.8425 10.7366 19.8807 9.58334 16.8712 9.58334C14.1815 9.58334 11.6663 10.7456 9.97118 12.7718C8.51018 14.522 6.98137 17.6878 7.99386 22.8526C9.61154 31.0927 21.7371 37.8539 22.2525 38.1389C22.4848 38.27 22.7423 38.3333 22.9997 38.3333C23.2572 38.3333 23.5147 38.27 23.7465 38.1389C24.2624 37.8539 36.3888 31.0927 38.0056 22.8526C39.019 17.6878 37.4906 14.522 36.0296 12.7718C34.3336 10.7456 31.8184 9.58334 29.1287 9.58334Z" fill="#111111"/>
</svg>
