<svg width="46" height="46" viewBox="0 0 46 46" fill="none" xmlns="http://www.w3.org/2000/svg">
<path d="M36.4961 22.049C35.2097 28.6559 25.8581 34.7964 22.9914 36.5442C18.963 34.1249 10.6732 28.0562 9.50482 22.049C8.62038 17.5129 9.83107 14.8784 11.0036 13.4637C12.2519 11.9568 14.112 11.0957 16.1051 11.0957C19.9954 11.0957 21.4282 13.5303 21.4767 13.6123C21.7761 14.1761 22.3611 14.5247 22.9997 14.5247C23.6378 14.5247 24.2233 14.1761 24.5227 13.6123C24.5361 13.5867 25.9777 11.0957 29.8948 11.0957C31.8889 11.0957 33.748 11.9568 34.9973 13.4637C36.1699 14.8784 37.3805 17.5129 36.4961 22.049ZM29.8948 7.66666C26.5101 7.66666 24.3016 8.97881 22.9997 10.1577C21.6978 8.97368 19.4908 7.66666 16.1051 7.66666C13.0792 7.66666 10.2496 8.98393 8.34258 11.2802C6.69895 13.2638 4.97904 16.8517 6.11809 22.7051C7.93799 32.0439 21.5792 39.7067 22.1591 40.0296C22.4204 40.1782 22.71 40.25 22.9997 40.25C23.2893 40.25 23.579 40.1782 23.8398 40.0296C24.4201 39.7067 38.0624 32.0439 39.8813 22.7051C41.0214 16.8517 39.302 13.2638 37.6583 11.2802C35.7503 8.98393 32.9207 7.66666 29.8948 7.66666Z" fill="#111111"/>
</svg>
