<svg width="46" height="46" viewBox="0 0 46 46" fill="none" xmlns="http://www.w3.org/2000/svg">
<path d="M23 0C35.7025 0 46 10.2975 46 23C46 35.7025 35.7025 46 23 46C10.2975 46 0 35.7025 0 23C0 10.2975 10.2975 0 23 0ZM30.2677 13.8139L21.2346 13.8151C20.3502 13.8153 19.6344 14.531 19.6343 15.4154C19.6376 16.2964 20.3531 17.012 21.2307 17.0118L26.4123 17.0077L13.3232 30.0968C12.6986 30.7214 12.7019 31.7307 13.3263 32.3551C13.9507 32.9795 14.96 32.9828 15.5846 32.3582L28.6737 19.2691L28.6696 24.4507C28.6694 25.3283 29.385 26.0438 30.266 26.0471C30.7082 26.0437 31.1065 25.8681 31.3969 25.5777C31.6872 25.2874 31.8628 24.889 31.8663 24.4468L31.8675 15.4137C31.8676 15.2044 31.8237 14.9985 31.7427 14.8027C31.5807 14.4112 31.2702 14.1007 30.8787 13.9387C30.6829 13.8577 30.477 13.8138 30.2677 13.8139Z" fill="#111111"/>
</svg>
