<svg width="46" height="46" viewBox="0 0 46 46" fill="none" xmlns="http://www.w3.org/2000/svg">
<path d="M33.3496 36.8003H12.6504V16.4478L23.0026 9.54776L33.3496 16.4478V36.8003ZM39.959 18.7818C40.49 17.9893 40.2735 16.9175 39.4795 16.3895L23.9563 6.03924C23.3789 5.65359 22.6262 5.65359 22.0437 6.03924L6.52049 16.3895C5.72654 16.9175 5.51001 17.9893 6.04103 18.7818C6.56689 19.5737 7.63407 19.7882 8.43317 19.2602L9.20134 18.7483V38.5254C9.20134 39.4777 9.97466 40.25 10.9284 40.25H35.0767C36.0305 40.25 36.7987 39.4777 36.7987 38.5254V18.7483L37.5668 19.2602C37.8607 19.4562 38.1958 19.55 38.5206 19.55C39.0825 19.55 39.629 19.2804 39.959 18.7818Z" fill="#111111"/>
</svg>
