<svg width="47" height="46" viewBox="0 0 47 46" fill="none" xmlns="http://www.w3.org/2000/svg">
<path d="M37.9208 16.0266L23.5 21.3959L9.07972 16.0266V12.5643H37.9208V16.0266ZM37.9208 33.4357H9.07972V19.2392L22.9047 24.3858C23.0963 24.4571 23.2984 24.4927 23.5 24.4927C23.7021 24.4927 23.9037 24.4571 24.0953 24.3858L37.9208 19.2392V33.4357ZM39.5226 9.58334H7.47736C6.59285 9.58334 5.875 10.2473 5.875 11.0716V34.9284C5.875 35.7483 6.59285 36.4167 7.47736 36.4167H39.5226C40.4076 36.4167 41.125 35.7483 41.125 34.9284V17.0692C41.125 17.0648 41.125 17.0648 41.125 17.0648V11.0716C41.125 10.2473 40.4076 9.58334 39.5226 9.58334Z" fill="black"/>
</svg>
