<svg width="46" height="46" viewBox="0 0 46 46" fill="none" xmlns="http://www.w3.org/2000/svg">
<path d="M23 10.5417C24.4944 10.5417 25.7225 11.6819 25.8618 13.1398L25.875 13.4167V20.125H32.5833C34.1712 20.125 35.4583 21.4122 35.4583 23C35.4583 24.4944 34.3181 25.7225 32.8602 25.8618L32.5833 25.875H25.875V32.5833C25.875 34.1712 24.5878 35.4583 23 35.4583C21.5056 35.4583 20.2775 34.3181 20.1382 32.8602L20.125 32.5833V25.875H13.4167C11.8288 25.875 10.5417 24.5878 10.5417 23C10.5417 21.5056 11.6819 20.2775 13.1398 20.1382L13.4167 20.125H20.125V13.4167C20.125 11.8289 21.4122 10.5417 23 10.5417Z" fill="#111111"/>
</svg>
