<svg width="46" height="46" viewBox="0 0 46 46" fill="none" xmlns="http://www.w3.org/2000/svg">
<path d="M12.2474 12.2476C14.2792 10.2153 16.9498 9.19938 19.6205 9.19938C22.2911 9.19938 24.9613 10.2153 26.9935 12.2476C28.9629 14.2169 30.0484 16.8356 30.0484 19.6197C30.0484 22.4049 28.9629 25.0235 26.9935 26.9929C22.928 31.0596 16.313 31.058 12.2474 26.9929C8.18345 22.9273 8.18345 16.3132 12.2474 12.2476ZM19.6205 33.49C22.6299 33.49 25.6342 32.5091 28.129 30.5686L37.3049 39.7446C37.6421 40.0814 38.0835 40.25 38.525 40.25C38.9664 40.25 39.4078 40.0814 39.7445 39.7446C40.4185 39.0706 40.4185 37.9789 39.7445 37.305L30.5697 28.1295C32.4617 25.7047 33.4987 22.7442 33.4987 19.6197C33.4987 15.914 32.0548 12.4286 29.4332 9.80788C24.0212 4.39737 15.2192 4.39737 9.80781 9.80788C4.3974 15.2179 4.3974 24.0226 9.80781 29.4326C12.5135 32.1378 16.067 33.49 19.6205 33.49Z" fill="#111111"/>
</svg>
