<svg width="46" height="46" viewBox="0 0 46 46" fill="none" xmlns="http://www.w3.org/2000/svg">
<path d="M9.33786 36.7998L10.7969 17.8252H14.375V21.2749C14.375 22.2277 15.1463 23 16.0996 23C17.0534 23 17.8247 22.2277 17.8247 21.2749V17.8252H28.1748V21.2749C28.1748 22.2277 28.9461 23 29.8999 23C30.8532 23 31.6245 22.2277 31.6245 21.2749V17.8252H35.2026L36.6616 36.7998H9.33786ZM23 9.20021C25.8532 9.20021 28.1748 11.5213 28.1748 14.375H17.8247C17.8247 11.5213 20.1463 9.20021 23 9.20021ZM39.7901 39.6973C40.1165 39.3441 40.282 38.8719 40.2449 38.3929L38.5198 15.9676C38.4507 15.069 37.701 14.375 36.7998 14.375H31.6245C31.6245 9.61937 27.7551 5.75 23 5.75C18.2444 5.75 14.375 9.61937 14.375 14.375H9.19968C8.29846 14.375 7.54882 15.069 7.47973 15.9676L5.75515 38.3929C5.71802 38.8719 5.88301 39.3441 6.20988 39.6973C6.53469 40.0494 6.99458 40.25 7.47458 40.25H38.5249C39.0049 40.25 39.4648 40.0494 39.7901 39.6973Z" fill="#111111"/>
</svg>
