<svg width="47" height="46" viewBox="0 0 47 46" fill="none" xmlns="http://www.w3.org/2000/svg">
<path d="M23.4988 16.8662H37.598C38.4643 16.8662 39.1667 16.1834 39.1667 15.3356C39.1667 14.4878 38.4643 13.8005 37.598 13.8005H23.4988C22.6326 13.8005 21.9302 14.4878 21.9302 15.3356C21.9302 16.1834 22.6326 16.8662 23.4988 16.8662ZM23.4988 24.5329H37.598C38.4643 24.5329 39.1667 23.8501 39.1667 23.0023C39.1667 22.1545 38.4643 21.4671 37.598 21.4671H23.4988C22.6326 21.4671 21.9302 22.1545 21.9302 23.0023C21.9302 23.8501 22.6326 24.5329 23.4988 24.5329ZM23.4988 32.1995H37.598C38.4643 32.1995 39.1667 31.5122 39.1667 30.669C39.1667 29.8212 38.4643 29.1338 37.598 29.1338H23.4988C22.6326 29.1338 21.9302 29.8212 21.9302 30.669C21.9302 31.5122 22.6326 32.1995 23.4988 32.1995ZM12.5323 13.0352V29.2667L10.5047 27.2824C9.89601 26.6821 8.90331 26.6821 8.28989 27.2824C7.68116 27.8827 7.68116 28.8497 8.28989 29.45L12.9912 34.0509C13.1317 34.193 13.3096 34.3029 13.5016 34.3809C13.6936 34.4588 13.8949 34.5 14.1009 34.5C14.3023 34.5 14.5036 34.4588 14.6956 34.3809C14.8876 34.3029 15.0656 34.193 15.206 34.0509L19.9073 29.45C20.5207 28.8497 20.5207 27.8827 19.9073 27.2824C19.2939 26.6821 18.3012 26.6821 17.6925 27.2824L15.6649 29.2667V13.0352C15.6649 12.1874 14.9625 11.5 14.1009 11.5C13.2347 11.5 12.5323 12.1874 12.5323 13.0352Z" fill="black"/>
</svg>
