<svg width="24" height="24" viewBox="0 0 24 24" fill="none" xmlns="http://www.w3.org/2000/svg">
<path fill-rule="evenodd" clip-rule="evenodd" d="M12 4C15.5525 4 18.4324 6.8799 18.4324 10.4324V12.8649C18.4324 13.4321 17.9726 13.8919 17.4054 13.8919C16.8382 13.8919 16.3784 13.4321 16.3784 12.8649V10.4324C16.3784 8.01432 14.4181 6.05405 12 6.05405C9.58189 6.05405 7.62162 8.01432 7.62162 10.4324V12.8649C7.62162 13.4321 7.16181 13.8919 6.5946 13.8919C6.02738 13.8919 5.56757 13.4321 5.56757 12.8649V10.4324C5.56757 6.8799 8.44747 4 12 4ZM19.027 14.5946C19.5644 14.5946 20 15.0302 20 15.5676C20 16.1049 19.5644 16.5405 19.027 16.5405H14.6429C14.8323 16.6887 14.9353 16.9232 14.8638 17.1795C14.5141 18.4323 13.3644 19.3514 12 19.3514C10.6356 19.3514 9.48592 18.4323 9.13621 17.1795C9.06468 16.9232 9.16774 16.6887 9.3571 16.5405H4.97297C4.43561 16.5405 4 16.1049 4 15.5676C4 15.0302 4.43561 14.5946 4.97297 14.5946H19.027ZM10.3267 16.5405C10.5474 16.6894 10.7326 16.9198 10.8845 17.1415C11.128 17.4967 11.5368 17.7297 12 17.7297C12.4632 17.7297 12.872 17.4967 13.1155 17.1415C13.2674 16.9198 13.4527 16.6894 13.6733 16.5405H10.3267Z" fill="#0B0D12"/>
</svg>
