<svg width="24" height="24" viewBox="0 0 24 24" fill="none" xmlns="http://www.w3.org/2000/svg">
<path fill-rule="evenodd" clip-rule="evenodd" d="M7.10063 4.27882C7.45449 3.91455 8.03665 3.90611 8.40092 4.25997L15.4884 11.145C15.5797 11.1902 15.665 11.2514 15.74 11.3286C15.9213 11.5152 16.0075 11.759 15.9995 12C16.0075 12.241 15.9213 12.4848 15.74 12.6714C15.665 12.7486 15.5797 12.8098 15.4884 12.855L8.40092 19.74C8.03665 20.0939 7.45449 20.0854 7.10063 19.7212C6.74677 19.3569 6.7552 18.7748 7.11947 18.4209L13.7292 12L7.11948 5.57911C6.75521 5.22525 6.74677 4.64309 7.10063 4.27882Z" fill="#0B0D12"/>
</svg>
