<svg width="24" height="24" viewBox="0 0 24 24" fill="none" xmlns="http://www.w3.org/2000/svg">
<path fill-rule="evenodd" clip-rule="evenodd" d="M12.5438 4.25509C12.1863 3.90788 11.6151 3.91616 11.2679 4.27358C10.9207 4.631 10.929 5.20222 11.2864 5.54943L17.1217 11.218H4.06015C3.56185 11.218 3.1579 11.622 3.1579 12.1203C3.1579 12.6186 3.56185 13.0226 4.06015 13.0226H16.8741L11.2864 18.4506C10.929 18.7978 10.9207 19.369 11.2679 19.7264C11.6151 20.0838 12.1863 20.0921 12.5438 19.7449L19.7264 12.7675C19.9396 12.5604 20.0286 12.2736 19.992 12C20.0286 11.7264 19.9396 11.4396 19.7264 11.2325L12.5438 4.25509Z" fill="#0B0D12"/>
</svg>
