<svg width="24" height="24" viewBox="0 0 24 24" fill="none" xmlns="http://www.w3.org/2000/svg">
<path fill-rule="evenodd" clip-rule="evenodd" d="M19.7449 13.5438C20.0921 13.1863 20.0838 12.6151 19.7264 12.2679C19.369 11.9207 18.7978 11.929 18.4506 12.2864L12.782 18.1217L12.782 5.06015C12.782 4.56185 12.378 4.1579 11.8797 4.1579C11.3814 4.1579 10.9774 4.56185 10.9774 5.06015L10.9774 17.8741L5.54943 12.2864C5.20222 11.929 4.631 11.9207 4.27358 12.2679C3.91616 12.6151 3.90788 13.1863 4.25509 13.5438L11.2325 20.7264C11.4396 20.9396 11.7264 21.0286 12 20.992C12.2736 21.0286 12.5604 20.9396 12.7675 20.7264L19.7449 13.5438Z" fill="#0B0D12"/>
</svg>
