<svg width="24" height="24" viewBox="0 0 24 24" fill="none" xmlns="http://www.w3.org/2000/svg">
<path fill-rule="evenodd" clip-rule="evenodd" d="M15.8994 4.27882C15.5455 3.91455 14.9633 3.90611 14.5991 4.25997L7.51157 11.145C7.42028 11.1902 7.335 11.2514 7.25998 11.3286C7.07871 11.5152 6.99252 11.759 7.00051 12C6.99249 12.241 7.07869 12.4848 7.25997 12.6714C7.335 12.7486 7.42028 12.8098 7.51158 12.855L14.5991 19.74C14.9634 20.0939 15.5455 20.0854 15.8994 19.7212C16.2532 19.3569 16.2448 18.7748 15.8805 18.4209L9.27079 12L15.8805 5.57911C16.2448 5.22525 16.2532 4.64309 15.8994 4.27882Z" fill="#0B0D12"/>
</svg>
