<svg width="24" height="24" viewBox="0 0 24 24" fill="none" xmlns="http://www.w3.org/2000/svg">
<path fill-rule="evenodd" clip-rule="evenodd" d="M4.27882 15.8994C3.91455 15.5455 3.90611 14.9633 4.25997 14.5991L11.145 7.51157C11.1902 7.42028 11.2514 7.335 11.3286 7.25998C11.5152 7.07871 11.759 6.99252 12 7.00051C12.241 6.99249 12.4848 7.07869 12.6714 7.25997C12.7486 7.335 12.8098 7.42028 12.855 7.51158L19.74 14.5991C20.0939 14.9634 20.0854 15.5455 19.7212 15.8994C19.3569 16.2532 18.7748 16.2448 18.4209 15.8805L12 9.27079L5.57911 15.8805C5.22525 16.2448 4.64309 16.2532 4.27882 15.8994Z" fill="#0B0D12"/>
</svg>
