<svg width="24" height="24" viewBox="0 0 24 24" fill="none" xmlns="http://www.w3.org/2000/svg">
<path fill-rule="evenodd" clip-rule="evenodd" d="M4.27882 8.25993C3.91455 8.61379 3.90611 9.19595 4.25997 9.56022L11.145 16.6477C11.1902 16.739 11.2514 16.8243 11.3286 16.8993C11.5152 17.0806 11.759 17.1668 12 17.1588C12.241 17.1668 12.4848 17.0806 12.6714 16.8993C12.7486 16.8243 12.8098 16.739 12.855 16.6477L19.74 9.56022C20.0939 9.19595 20.0854 8.61379 19.7212 8.25993C19.3569 7.90607 18.7748 7.91451 18.4209 8.27877L12 14.8885L5.57911 8.27878C5.22525 7.91451 4.64309 7.90607 4.27882 8.25993Z" fill="#0B0D12"/>
</svg>
