<svg width="24" height="24" viewBox="0 0 24 24" fill="none" xmlns="http://www.w3.org/2000/svg">
<path fill-rule="evenodd" clip-rule="evenodd" d="M4.25509 11.4562C3.90788 11.8137 3.91616 12.3849 4.27358 12.7321C4.631 13.0793 5.20222 13.071 5.54943 12.7136L11.218 6.87826L11.218 19.9398C11.218 20.4381 11.622 20.8421 12.1203 20.8421C12.6186 20.8421 13.0226 20.4381 13.0226 19.9398L13.0226 7.12593L18.4506 12.7136C18.7978 13.071 19.369 13.0793 19.7264 12.7321C20.0838 12.3849 20.0921 11.8137 19.7449 11.4562L12.7675 4.27358C12.5604 4.06039 12.2736 3.97141 12 4.008C11.7264 3.97142 11.4396 4.06039 11.2325 4.27358L4.25509 11.4562Z" fill="#0B0D12"/>
</svg>
