<svg width="24" height="24" viewBox="0 0 24 24" fill="none" xmlns="http://www.w3.org/2000/svg">
<path fill-rule="evenodd" clip-rule="evenodd" d="M11.4562 4.25509C11.8137 3.90788 12.3849 3.91616 12.7321 4.27358C13.0793 4.631 13.071 5.20222 12.7136 5.54943L6.87826 11.218H19.9398C20.4382 11.218 20.8421 11.622 20.8421 12.1203C20.8421 12.6186 20.4382 13.0226 19.9398 13.0226H7.12593L12.7136 18.4506C13.071 18.7978 13.0793 19.369 12.7321 19.7264C12.3849 20.0838 11.8137 20.0921 11.4562 19.7449L4.27358 12.7675C4.06039 12.5604 3.97141 12.2736 4.008 12C3.97142 11.7264 4.06039 11.4396 4.27358 11.2325L11.4562 4.25509Z" fill="#0B0D12"/>
</svg>
