<svg width="24" height="24" viewBox="0 0 24 24" fill="none" xmlns="http://www.w3.org/2000/svg">
<path fill-rule="evenodd" clip-rule="evenodd" d="M3 12C3 16.9706 7.02944 21 12 21C16.9706 21 21 16.9706 21 12C21 7.02944 16.9706 3 12 3C7.02944 3 3 7.02944 3 12ZM19.1379 12C19.1379 15.9422 15.9422 19.1379 12 19.1379C8.05783 19.1379 4.86207 15.9422 4.86207 12C4.86207 8.05783 8.05783 4.86207 12 4.86207C15.9422 4.86207 19.1379 8.05783 19.1379 12Z" fill="#0B0D12"/>
<path d="M18.4834 7.07216C18.847 6.70857 18.847 6.11907 18.4834 5.75548C18.1198 5.39189 17.5303 5.39189 17.1667 5.75548L5.75546 17.1667C5.39186 17.5303 5.39186 18.1198 5.75546 18.4834C6.11905 18.847 6.70855 18.847 7.07214 18.4834L18.4834 7.07216Z" fill="#0D0E10"/>
</svg>
