<svg width="24" height="24" viewBox="0 0 24 24" fill="none" xmlns="http://www.w3.org/2000/svg">
<path fill-rule="evenodd" clip-rule="evenodd" d="M3 12C3 16.9706 7.02944 21 12 21C16.9706 21 21 16.9706 21 12C21 7.02944 16.9706 3 12 3C7.02944 3 3 7.02944 3 12ZM11.5433 16.3172C11.3459 16.519 11.0816 16.6157 10.82 16.6065C10.5585 16.6157 10.2941 16.519 10.0967 16.3172L7.13212 13.2867C6.75971 12.906 6.76642 12.2955 7.14711 11.9231C7.5278 11.5507 8.13832 11.5574 8.51073 11.9381L10.82 14.2987L16.0939 8.90762C16.4663 8.52693 17.0768 8.52022 17.4575 8.89264C17.8382 9.26505 17.8449 9.87557 17.4725 10.2563L11.5433 16.3172Z" fill="#0B0D12"/>
</svg>
