<svg width="24" height="24" viewBox="0 0 24 24" fill="none" xmlns="http://www.w3.org/2000/svg">
<path fill-rule="evenodd" clip-rule="evenodd" d="M3 12C3 16.9706 7.02944 21 12 21C16.9706 21 21 16.9706 21 12C21 7.02944 16.9706 3 12 3C7.02944 3 3 7.02944 3 12ZM19.0714 12C19.0714 15.9054 15.9054 19.0714 12 19.0714C8.09456 19.0714 4.92857 15.9054 4.92857 12C4.92857 8.09456 8.09456 4.92857 12 4.92857C15.9054 4.92857 19.0714 8.09456 19.0714 12ZM10.7143 6.85714C10.7143 6.32458 11.146 5.89286 11.6786 5.89286C12.2111 5.89286 12.6429 6.32458 12.6429 6.85714V11.6786H14.8929C15.4254 11.6786 15.8571 12.1103 15.8571 12.6429C15.8571 13.1754 15.4254 13.6071 14.8929 13.6071H11.6786C11.146 13.6071 10.7143 13.1754 10.7143 12.6429C10.7143 12.5881 10.7188 12.5344 10.7276 12.4821C10.7188 12.4299 10.7143 12.3762 10.7143 12.3214V6.85714Z" fill="#0B0D12"/>
</svg>
