<svg width="24" height="24" viewBox="0 0 24 24" fill="none" xmlns="http://www.w3.org/2000/svg">
<path fill-rule="evenodd" clip-rule="evenodd" d="M11.0796 5.84071V6.55654H13.1091V5.84071H11.0796ZM9.23894 4.92035V6.55654H4.92035C4.41206 6.55654 4 6.96859 4 7.47689C4 7.98519 4.41206 8.39725 4.92035 8.39725H19.0796C19.5879 8.39725 20 7.98519 20 7.47689C20 6.96859 19.5879 6.55654 19.0796 6.55654H14.9499V4.92035C14.9499 4.41206 14.5378 4 14.0295 4H10.1593C9.65099 4 9.23894 4.41206 9.23894 4.92035ZM18.7257 9.82891H16.885V18.3507C16.885 18.7837 16.5339 19.1347 16.101 19.1347H8.18224C7.74924 19.1347 7.39823 18.7837 7.39823 18.3507V9.82891H5.55752V18.3507C5.55752 19.8003 6.73265 20.9754 8.18224 20.9754H16.101C17.5505 20.9754 18.7257 19.8003 18.7257 18.3507V9.82891ZM9.23894 11.6696C9.23894 11.1613 9.65099 10.7493 10.1593 10.7493C10.6676 10.7493 11.0796 11.1613 11.0796 11.6696V16.7827C11.0796 17.291 10.6676 17.703 10.1593 17.703C9.65099 17.703 9.23894 17.291 9.23894 16.7827V11.6696ZM13.7935 10.7493C13.2852 10.7493 12.8732 11.1613 12.8732 11.6696V16.7827C12.8732 17.291 13.2852 17.703 13.7935 17.703C14.3018 17.703 14.7139 17.291 14.7139 16.7827V11.6696C14.7139 11.1613 14.3018 10.7493 13.7935 10.7493Z" fill="#0B0D12"/>
</svg>
