<svg width="24" height="24" viewBox="0 0 24 24" fill="none" xmlns="http://www.w3.org/2000/svg">
<path fill-rule="evenodd" clip-rule="evenodd" d="M12.9224 12.5146L16.3617 8.91197C16.7103 8.5468 17.289 8.53338 17.6541 8.88199C18.0193 9.23061 18.0327 9.80924 17.6841 10.1744L12.7469 15.3461C12.5481 15.5543 12.2745 15.6482 12.0083 15.6257C11.7421 15.6482 11.4685 15.5543 11.2697 15.3461L6.33246 10.1744C5.98385 9.80924 5.99727 9.23061 6.36244 8.88199C6.72761 8.53338 7.30624 8.5468 7.65486 8.91197L11.0942 12.5146V4.91412C11.0942 4.40927 11.5034 4 12.0083 4C12.5131 4 12.9224 4.40927 12.9224 4.91412V12.5146ZM17.1883 15.2553V18.1718H6.82825V15.2553C6.82825 14.7504 6.41898 14.3411 5.91413 14.3411C5.40927 14.3411 5 14.7504 5 15.2553V19.0859C5 19.5907 5.40927 20 5.91413 20H18.1024C18.6073 20 19.0166 19.5907 19.0166 19.0859V15.2553C19.0166 14.7504 18.6073 14.3411 18.1024 14.3411C17.5976 14.3411 17.1883 14.7504 17.1883 15.2553Z" fill="#0B0D12"/>
</svg>
