<svg width="24" height="24" viewBox="0 0 24 24" fill="none" xmlns="http://www.w3.org/2000/svg">
<path fill-rule="evenodd" clip-rule="evenodd" d="M15.2901 4.36188C15.7727 3.87937 16.555 3.87937 17.0375 4.36188L18.7848 6.10921C19.2673 6.59172 19.2673 7.37402 18.7848 7.85654L10.1067 16.5346L6.61204 13.04L15.2901 4.36188ZM7.12744 17.4704C6.26535 17.6402 5.50643 16.8813 5.67632 16.0192L6.03492 14.1995L8.94713 17.1118L7.12744 17.4704ZM5.61777 18.7645C5.27659 18.7645 5 19.041 5 19.3822C5 19.7234 5.27659 20 5.61777 20H17.9732C18.3144 20 18.591 19.7234 18.591 19.3822C18.591 19.041 18.3144 18.7645 17.9732 18.7645H5.61777Z" fill="#0B0D12"/>
</svg>
