<svg width="24" height="24" viewBox="0 0 24 24" fill="none" xmlns="http://www.w3.org/2000/svg">
<path fill-rule="evenodd" clip-rule="evenodd" d="M3 12C3 16.9706 7.02944 21 12 21C16.9706 21 21 16.9706 21 12C21 7.02944 16.9706 3 12 3C7.02944 3 3 7.02944 3 12ZM9.76043 15.6691C9.38802 16.0498 8.7775 16.0565 8.39681 15.684C8.01612 15.3116 8.00941 14.7011 8.38182 14.3204L10.6972 11.9795L8.38183 9.63861C8.00942 9.25791 8.01612 8.6474 8.39682 8.27498C8.77751 7.90257 9.38802 7.90927 9.76044 8.28997L12.0534 10.6083L14.3464 8.28997C14.7188 7.90927 15.3293 7.90257 15.71 8.27498C16.0907 8.6474 16.0974 9.25791 15.725 9.63861L13.4097 11.9795L15.725 14.3204C16.0974 14.7011 16.0907 15.3116 15.71 15.684C15.3293 16.0565 14.7188 16.0498 14.3464 15.6691L12.0534 13.3507L9.76043 15.6691Z" fill="#0B0D12"/>
</svg>
