<svg width="24" height="24" viewBox="0 0 24 24" fill="none" xmlns="http://www.w3.org/2000/svg">
<path d="M11.9938 20.0256C11.7372 20.0361 11.4767 19.948 11.274 19.7592L4.5561 13.5029C4.51372 13.4634 4.47204 13.4232 4.43109 13.3822C2.52297 11.4741 2.52297 8.38045 4.43109 6.47234C6.3942 4.50922 9.57705 4.50922 11.5402 6.47234L11.9938 6.92593L12.448 6.47234C14.4138 4.50922 17.6011 4.50922 19.5669 6.47234C21.4777 8.38045 21.4777 11.4741 19.5669 13.3822C19.5259 13.4232 19.4842 13.4634 19.4417 13.5029L12.7145 19.7592C12.5115 19.948 12.2507 20.0361 11.9938 20.0256Z" fill="#0B0D12"/>
</svg>
