<svg width="24" height="24" viewBox="0 0 24 24" fill="none" xmlns="http://www.w3.org/2000/svg">
<path fill-rule="evenodd" clip-rule="evenodd" d="M11.0582 7.48501C9.54225 5.96906 7.08441 5.96906 5.56846 7.48501C4.10303 8.95045 4.10303 11.3264 5.56846 12.7918C5.59992 12.8233 5.63193 12.8542 5.66448 12.8845L11.8339 18.6301C11.8708 18.6643 11.9166 18.6802 11.9642 18.6783H11.9943L12.0243 18.6783C12.0725 18.6802 12.1189 18.6641 12.1559 18.6297L18.3339 12.8841C18.3665 12.8538 18.3986 12.8229 18.4301 12.7915C19.8975 11.3261 19.8975 8.95072 18.4301 7.48537C16.9115 5.96894 14.4491 5.96894 12.9305 7.48537L11.9939 8.42072L11.0582 7.48501ZM11.9943 20.1474C11.5803 20.1568 11.1602 20.0105 10.8325 19.7054L4.66306 13.9598C4.61776 13.9176 4.57322 13.8746 4.52945 13.8308C2.49018 11.7916 2.49018 8.48526 4.52945 6.446C6.58537 4.39008 9.89797 4.35677 11.9946 6.34606C14.0937 4.35688 17.4099 4.39007 19.4684 6.44564C21.5105 8.48499 21.5105 11.7918 19.4684 13.8312C19.4245 13.875 19.3799 13.9179 19.3346 13.9601L13.1566 19.7057C12.8286 20.0107 12.4083 20.1568 11.9943 20.1474Z" fill="#0B0D12"/>
</svg>
