<svg width="24" height="24" viewBox="0 0 24 24" fill="none" xmlns="http://www.w3.org/2000/svg">
<path fill-rule="evenodd" clip-rule="evenodd" d="M13.2444 16.9778V19.1111C13.2444 19.602 13.6424 20 14.1333 20H19.1111C19.602 20 20 19.602 20 19.1111V11.0519C20 10.7941 19.8881 10.549 19.6933 10.3801L12.5822 4.21717C12.2481 3.92761 11.7519 3.92761 11.4178 4.21717L4.30673 10.3801C4.11192 10.549 4 10.7941 4 11.0519V19.1111C4 19.602 4.39797 20 4.88889 20H9.86667C10.3576 20 10.7556 19.602 10.7556 19.1111V16.9778C10.7556 16.2905 11.3127 15.7333 12 15.7333C12.6873 15.7333 13.2444 16.2905 13.2444 16.9778ZM18.2222 11.4577V18.2222H15.0222V16.9778C15.0222 15.3087 13.6691 13.9556 12 13.9556C10.3309 13.9556 8.97778 15.3087 8.97778 16.9778V18.2222H5.77778V11.4577L12 6.06515L18.2222 11.4577Z" fill="#0B0D12"/>
</svg>
