<svg width="24" height="24" viewBox="0 0 24 24" fill="none" xmlns="http://www.w3.org/2000/svg">
<path fill-rule="evenodd" clip-rule="evenodd" d="M3 12C3 16.9706 7.02944 21 12 21C16.9706 21 21 16.9706 21 12C21 7.02944 16.9706 3 12 3C7.02944 3 3 7.02944 3 12ZM19.0714 12C19.0714 15.9054 15.9054 19.0714 12 19.0714C8.09456 19.0714 4.92857 15.9054 4.92857 12C4.92857 8.09456 8.09456 4.92857 12 4.92857C15.9054 4.92857 19.0714 8.09456 19.0714 12ZM11.0357 11.6786C11.0357 11.146 11.4674 10.7143 12 10.7143C12.5326 10.7143 12.9643 11.146 12.9643 11.6786V16.1786C12.9643 16.7111 12.5326 17.1429 12 17.1429C11.4674 17.1429 11.0357 16.7111 11.0357 16.1786V11.6786ZM12 9.86269C12.7101 9.86269 13.2857 9.28705 13.2857 8.57697V8.25555C13.2857 7.54547 12.7101 6.96983 12 6.96983C11.2899 6.96983 10.7143 7.54547 10.7143 8.25555V8.57697C10.7143 9.28705 11.2899 9.86269 12 9.86269Z" fill="#0B0D12"/>
</svg>
