<svg width="24" height="24" viewBox="0 0 24 24" fill="none" xmlns="http://www.w3.org/2000/svg">
<path fill-rule="evenodd" clip-rule="evenodd" d="M6.48276 6H17.5172C18.8884 6 20 7.11157 20 8.48276V16.2069C20 17.5781 18.8884 18.6897 17.5172 18.6897H6.48276C5.11157 18.6897 4 17.5781 4 16.2069V8.48276C4 7.11157 5.11157 6 6.48276 6ZM6.48276 7.65516C6.0257 7.65516 5.65517 8.02569 5.65517 8.48275V16.2069C5.65517 16.6639 6.0257 17.0345 6.48276 17.0345H17.5172C17.9743 17.0345 18.3448 16.6639 18.3448 16.2069V8.48275C18.3448 8.02569 17.9743 7.65516 17.5172 7.65516H6.48276ZM16.5636 8.31103L12 10.8464L7.43639 8.31103C7.03685 8.08906 6.53301 8.23302 6.31104 8.63256C6.08907 9.03211 6.23303 9.53594 6.63257 9.75791L11.5981 12.5165C11.848 12.6554 12.152 12.6554 12.4019 12.5165L17.3674 9.75791C17.767 9.53594 17.9109 9.03211 17.689 8.63256C17.467 8.23302 16.9632 8.08906 16.5636 8.31103Z" fill="#0B0D12"/>
</svg>
