<svg width="24" height="24" viewBox="0 0 24 24" fill="none" xmlns="http://www.w3.org/2000/svg">
<path fill-rule="evenodd" clip-rule="evenodd" d="M5 6.91304C5 7.4173 5.40878 7.82609 5.91304 7.82609H18.087C18.5912 7.82609 19 7.4173 19 6.91304C19 6.40878 18.5912 6 18.087 6H5.91304C5.40878 6 5 6.40878 5 6.91304ZM5.91304 12.6957C5.40878 12.6957 5 12.2869 5 11.7826C5 11.2784 5.40878 10.8696 5.91304 10.8696H18.087C18.5912 10.8696 19 11.2784 19 11.7826C19 12.2869 18.5912 12.6957 18.087 12.6957H5.91304ZM5.91304 17.5652C5.40878 17.5652 5 17.1564 5 16.6522C5 16.1479 5.40878 15.7391 5.91304 15.7391H18.087C18.5912 15.7391 19 16.1479 19 16.6522C19 17.1564 18.5912 17.5652 18.087 17.5652H5.91304Z" fill="#0B0D12"/>
</svg>
