<svg width="24" height="24" viewBox="0 0 24 24" fill="none" xmlns="http://www.w3.org/2000/svg">
<path fill-rule="evenodd" clip-rule="evenodd" d="M8.95487 17.6897L6.18102 19.671C5.56114 20.1137 4.69969 19.9702 4.25692 19.3503C4.08983 19.1164 4 18.8361 4 18.5486V7.48276C4 6.11157 5.11157 5 6.48276 5H17.5172C18.8884 5 20 6.11157 20 7.48276V15.2069C20 16.5781 18.8884 17.6897 17.5172 17.6897H8.95487ZM8.42444 16.0345H17.5172C17.9743 16.0345 18.3448 15.6639 18.3448 15.2069V7.48275C18.3448 7.02568 17.9743 6.65516 17.5172 6.65516H6.48276C6.0257 6.65516 5.65517 7.02568 5.65517 7.48275V18.0125L8.42444 16.0345ZM8.96552 12.4483C9.42258 12.4483 9.7931 12.0777 9.7931 11.6207C9.7931 11.1636 9.42258 10.7931 8.96552 10.7931C8.50845 10.7931 8.13793 11.1636 8.13793 11.6207C8.13793 12.0777 8.50845 12.4483 8.96552 12.4483ZM12.2759 12.4483C12.7329 12.4483 13.1034 12.0777 13.1034 11.6207C13.1034 11.1636 12.7329 10.7931 12.2759 10.7931C11.8188 10.7931 11.4483 11.1636 11.4483 11.6207C11.4483 12.0777 11.8188 12.4483 12.2759 12.4483ZM16.4138 11.6207C16.4138 12.0777 16.0433 12.4483 15.5862 12.4483C15.1291 12.4483 14.7586 12.0777 14.7586 11.6207C14.7586 11.1636 15.1291 10.7931 15.5862 10.7931C16.0433 10.7931 16.4138 11.1636 16.4138 11.6207Z" fill="#0B0D12"/>
</svg>
