<svg width="24" height="24" viewBox="0 0 24 24" fill="none" xmlns="http://www.w3.org/2000/svg">
<path fill-rule="evenodd" clip-rule="evenodd" d="M8.57142 5C9.99158 5 11.1428 6.15127 11.1428 7.57143V15.5714C11.1428 16.9916 9.99158 18.1429 8.57142 18.1429C7.15126 18.1429 5.99999 16.9916 5.99999 15.5714V7.57143C5.99999 6.15127 7.15126 5 8.57142 5ZM8.57142 6.7143C8.09803 6.7143 7.71428 7.09805 7.71428 7.57144V15.5714C7.71428 16.0448 8.09803 16.4286 8.57142 16.4286C9.04481 16.4286 9.42856 16.0448 9.42856 15.5714V7.57144C9.42856 7.09805 9.04481 6.7143 8.57142 6.7143ZM15.4286 5.00001C16.8487 5.00001 18 6.15128 18 7.57144V15.5714C18 16.9916 16.8487 18.1429 15.4286 18.1429C14.0084 18.1429 12.8571 16.9916 12.8571 15.5714V7.57144C12.8571 6.15128 14.0084 5.00001 15.4286 5.00001ZM15.4286 6.7143C14.9552 6.7143 14.5714 7.09805 14.5714 7.57144V15.5714C14.5714 16.0448 14.9552 16.4286 15.4286 16.4286C15.902 16.4286 16.2857 16.0448 16.2857 15.5714V7.57144C16.2857 7.09805 15.902 6.7143 15.4286 6.7143Z" fill="#0B0D12"/>
</svg>
