<svg width="24" height="24" viewBox="0 0 24 24" fill="none" xmlns="http://www.w3.org/2000/svg">
<path fill-rule="evenodd" clip-rule="evenodd" d="M11.3448 12.2759C9.05951 12.2759 7.2069 10.4232 7.2069 8.13793C7.2069 5.85261 9.05951 4 11.3448 4C13.6301 4 15.4828 5.85261 15.4828 8.13793C15.4828 10.4232 13.6301 12.2759 11.3448 12.2759ZM11.3448 10.6207C12.716 10.6207 13.8276 9.50912 13.8276 8.13793C13.8276 6.76674 12.716 5.65517 11.3448 5.65517C9.97364 5.65517 8.86207 6.76674 8.86207 8.13793C8.86207 9.50912 9.97364 10.6207 11.3448 10.6207ZM17.6897 19.1724V20H5V19.1724C5 15.6683 7.84068 12.8276 11.3448 12.8276C14.849 12.8276 17.6897 15.6683 17.6897 19.1724ZM11.3448 14.4828C9.03719 14.4828 7.11884 16.1495 6.72796 18.3448H15.9617C15.5708 16.1495 13.6525 14.4828 11.3448 14.4828Z" fill="#0B0D12"/>
</svg>
