<svg width="24" height="24" viewBox="0 0 24 24" fill="none" xmlns="http://www.w3.org/2000/svg">
<path fill-rule="evenodd" clip-rule="evenodd" d="M18.3299 10.6649C18.3299 12.7887 17.3366 14.6804 15.7892 15.9009L12.4352 19.6318C11.9939 20.1227 11.2244 20.1227 10.783 19.6318L7.01102 15.436C5.77034 14.2255 5 12.5352 5 10.6649C5 6.984 7.984 4 11.6649 4C15.3459 4 18.3299 6.984 18.3299 10.6649ZM11.6649 13.9974C13.5054 13.9974 14.9974 12.5054 14.9974 10.6649C14.9974 8.82447 13.5054 7.33248 11.6649 7.33248C9.82447 7.33248 8.33247 8.82447 8.33247 10.6649C8.33247 12.5054 9.82447 13.9974 11.6649 13.9974Z" fill="#0B0D12"/>
</svg>
