<svg width="24" height="24" viewBox="0 0 24 24" fill="none" xmlns="http://www.w3.org/2000/svg">
<path fill-rule="evenodd" clip-rule="evenodd" d="M11.2751 17.5503C7.80947 17.5503 5 14.7408 5 11.2751C5 7.80947 7.80947 5 11.2751 5C14.7408 5 17.5503 7.80947 17.5503 11.2751C17.5503 12.8522 16.9684 14.2935 16.0077 15.3959L18.7603 18.1484C19.0799 18.468 19.0799 18.9863 18.7603 19.3059C18.4406 19.6256 17.9224 19.6256 17.6027 19.3059L14.7787 16.4819C13.7781 17.1565 12.5726 17.5503 11.2751 17.5503ZM11.2751 15.9133C13.8367 15.9133 15.9133 13.8367 15.9133 11.2751C15.9133 8.71355 13.8367 6.63698 11.2751 6.63698C8.71355 6.63698 6.63699 8.71355 6.63699 11.2751C6.63699 13.8367 8.71355 15.9133 11.2751 15.9133Z" fill="#0B0D12"/>
</svg>
