<svg width="24" height="24" viewBox="0 0 24 24" fill="none" xmlns="http://www.w3.org/2000/svg">
<path fill-rule="evenodd" clip-rule="evenodd" d="M17.6392 10.739C18.0039 10.3908 18.0173 9.81285 17.6691 9.44811L12.7377 4.28257C12.5392 4.07456 12.2659 3.98082 12 4.00325C11.7341 3.98082 11.4608 4.07456 11.2623 4.28257L6.33089 9.44811C5.98269 9.81285 5.99609 10.3908 6.36083 10.739C6.72557 11.0872 7.30352 11.0738 7.65172 10.7091L11.087 7.1107V14.7022C11.087 15.2064 11.4957 15.6152 12 15.6152C12.5043 15.6152 12.913 15.2064 12.913 14.7022V7.1107L16.3483 10.7091C16.6965 11.0738 17.2744 11.0872 17.6392 10.739ZM18.087 14.5907C17.5827 14.5907 17.1739 14.9994 17.1739 15.5037V18.4167H6.82609V15.5037C6.82609 14.9994 6.4173 14.5907 5.91304 14.5907C5.40878 14.5907 5 14.9994 5 15.5037V19.3298C5 19.834 5.40878 20.2428 5.91304 20.2428H18.087C18.5912 20.2428 19 19.834 19 19.3298V15.5037C19 14.9994 18.5912 14.5907 18.087 14.5907Z" fill="#0B0D12"/>
</svg>
