<svg width="24" height="24" viewBox="0 0 24 24" fill="none" xmlns="http://www.w3.org/2000/svg">
<path fill-rule="evenodd" clip-rule="evenodd" d="M12.1715 4.57584C12.1013 4.43373 11.8987 4.43373 11.8285 4.57584L9.60554 9.08011L4.63479 9.80241C4.47795 9.8252 4.41533 10.0179 4.52881 10.1286L8.12569 13.6346L7.27658 18.5853C7.24979 18.7415 7.41374 18.8606 7.55402 18.7869L12 16.4495L16.446 18.7869C16.5863 18.8606 16.7502 18.7415 16.7234 18.5853L15.8743 13.6346L19.4712 10.1286C19.5847 10.0179 19.5221 9.8252 19.3652 9.80241L14.3945 9.08011L12.1715 4.57584ZM10.511 3.9256C11.1201 2.69147 12.8799 2.69147 13.489 3.9256L15.3701 7.7372L19.5765 8.34842C20.9384 8.54632 21.4823 10.22 20.4967 11.1807L17.453 14.1476L18.1715 18.3369C18.4042 19.6934 16.9804 20.7278 15.7623 20.0874L12 18.1094L8.23773 20.0874C7.01956 20.7278 5.59582 19.6934 5.82847 18.3369L6.547 14.1476L3.50326 11.1807C2.51774 10.22 3.06156 8.54632 4.42351 8.34842L8.62986 7.7372L10.511 3.9256Z" fill="#0B0D12"/>
</svg>
