<svg width="24" height="24" viewBox="0 0 24 24" fill="none" xmlns="http://www.w3.org/2000/svg">
<path fill-rule="evenodd" clip-rule="evenodd" d="M9.34597 18.7894L12 16.3746L14.654 18.7894C15.0222 19.1245 15.5022 19.3101 16 19.3101C17.1046 19.3101 18 18.4147 18 17.3101V7C18 5.89543 17.1046 5 16 5H8C6.89543 5 6 5.89543 6 7V17.3101C6 17.808 6.18566 18.2879 6.52069 18.6561C7.26405 19.4731 8.52898 19.5328 9.34597 18.7894ZM16 6.71431C16.1578 6.71431 16.2857 6.84223 16.2857 7.00003V17.3102C16.2857 17.468 16.1578 17.5959 16 17.5959C15.9289 17.5959 15.8603 17.5693 15.8077 17.5215L12.5768 14.5818C12.2498 14.2843 11.7502 14.2843 11.4232 14.5818L8.19228 17.5215C8.07557 17.6277 7.89486 17.6192 7.78867 17.5024C7.74081 17.4498 7.71429 17.3813 7.71429 17.3102V7.00003C7.71429 6.84223 7.8422 6.71431 8 6.71431H16Z" fill="#0B0D12"/>
</svg>
