<svg width="24" height="24" viewBox="0 0 24 24" fill="none" xmlns="http://www.w3.org/2000/svg">
<path fill-rule="evenodd" clip-rule="evenodd" d="M3 12C3 7.02944 7.02944 3 12 3C16.9706 3 21 7.02944 21 12C21 16.9706 16.9706 21 12 21C7.02944 21 3 16.9706 3 12ZM19.0714 12C19.0714 8.09456 15.9054 4.92857 12 4.92857C8.09456 4.92857 4.92857 8.09456 4.92857 12C4.92857 15.9054 8.09456 19.0714 12 19.0714C15.9054 19.0714 19.0714 15.9054 19.0714 12Z" fill="#0B0D12"/>
<path fill-rule="evenodd" clip-rule="evenodd" d="M12 13.2857C11.4674 13.2857 11.0357 12.854 11.0357 12.3214V7.8214C11.0357 7.28884 11.4674 6.85712 12 6.85712C12.5326 6.85712 12.9643 7.28884 12.9643 7.8214V12.3214C12.9643 12.854 12.5326 13.2857 12 13.2857ZM12 14.1373C12.7101 14.1373 13.2857 14.7129 13.2857 15.423V15.7444C13.2857 16.4545 12.7101 17.0301 12 17.0301C11.2899 17.0301 10.7143 16.4545 10.7143 15.7444V15.423C10.7143 14.7129 11.2899 14.1373 12 14.1373Z" fill="#29292C"/>
</svg>
