<?xml version="1.0" encoding="UTF-8"?>
<svg width="55px" height="51px" viewBox="0 0 55 51" version="1.1" xmlns="http://www.w3.org/2000/svg" xmlns:xlink="http://www.w3.org/1999/xlink">
    <title>illust/illust-email-error</title>
    <g id="Symbols" stroke="none" stroke-width="1" fill="none" fill-rule="evenodd">
        <g id="illust/illust-email-error" transform="translate(0.000000, 5.000000)">
            <g transform="translate(0.000000, -5.000000)">
                <path d="M45.4549777,19.844902 L25,28.048987 L4.54570155,19.844902 L4.54570155,14.5547991 L45.4549777,14.5547991 L45.4549777,19.844902 Z M45.4549777,46.4452009 L4.54570155,46.4452009 L4.54570155,24.7537363 L24.1556624,32.6174029 C24.427372,32.7263368 24.7140256,32.7808037 25,32.7808037 C25.2866536,32.7808037 25.572628,32.7263368 25.8443376,32.6174029 L45.4549777,24.7537363 L45.4549777,46.4452009 Z M47.7271492,10 L2.27285078,10 C1.01823171,10 0,11.014447 0,12.2739954 L0,48.7260046 C0,49.9787446 1.01823171,51 2.27285078,51 L47.7271492,51 C48.9824476,51 50,49.9787446 50,48.7260046 L50,21.4380604 C50,21.4312521 50,21.4312521 50,21.4312521 L50,12.2739954 C50,11.014447 48.9824476,10 47.7271492,10 L47.7271492,10 Z" id="Fill-104" fill="#000000"></path>
                <g id="illus/illus-success" transform="translate(31.000000, 0.000000)">
                    <circle id="Combined-Shape" fill="#FF3B66" cx="12" cy="12" r="12"></circle>
                    <path d="M14.4682251,7.68 L16.1652814,9.37705627 L13.62,11.923 L16.1652814,14.4682251 L14.4682251,16.1652814 L11.923,13.62 L9.37705627,16.1652814 L7.68,14.4682251 L10.226,11.923 L7.68,9.37705627 L9.37705627,7.68 L11.923,10.226 L14.4682251,7.68 Z" id="Combined-Shape" fill="#FFFFFF"></path>
                </g>
            </g>
        </g>
    </g>
</svg>