<?xml version="1.0" encoding="UTF-8"?>
<svg width="55px" height="55px" viewBox="0 0 55 55" version="1.1" xmlns="http://www.w3.org/2000/svg" xmlns:xlink="http://www.w3.org/1999/xlink">
    <title>illust/illust-shop-error</title>
    <g id="Symbols" stroke="none" stroke-width="1" fill="none" fill-rule="evenodd">
        <g id="illust/illust-shop-error" transform="translate(0.000000, 5.000000)">
            <g transform="translate(0.000000, -5.000000)">
                <path d="M5.19979249,49.9997011 L7.31438595,22.5002989 L12.4999967,22.5002989 L12.4999967,27.4998506 C12.4999967,28.8806862 13.6178172,30 14.9994014,30 C16.3817328,30 17.4995532,28.8806862 17.4995532,27.4998506 L17.4995532,22.5002989 L32.499717,22.5002989 L32.499717,27.4998506 C32.499717,28.8806862 33.6175374,30 34.9998689,30 C36.3814531,30 37.4992735,28.8806862 37.4992735,27.4998506 L37.4992735,22.5002989 L42.6848843,22.5002989 L44.7994777,49.9997011 L5.19979249,49.9997011 Z M25.0000087,10.0002989 C29.1350476,10.0002989 32.499717,13.3642178 32.499717,17.5 L17.4995532,17.5 C17.4995532,13.3642178 20.8642226,10.0002989 25.0000087,10.0002989 Z M49.3335248,54.1989958 C49.8065063,53.68716 50.0463594,53.0027198 49.9925606,52.308566 L47.4924088,19.8081176 C47.3922831,18.5057385 46.3058454,17.5 44.999729,17.5 L37.4992735,17.5 C37.4992735,10.6077769 31.8914912,5 25,5 C18.107779,5 12.5,10.6077769 12.5,17.5 L4.99954124,17.5 C3.69342486,17.5 2.60698709,18.5057385 2.50686147,19.8081176 L0.00745683786,52.308566 C-0.0463420062,53.0027198 0.192763967,53.68716 0.666492677,54.1989958 C1.13723256,54.7093371 1.80374046,55 2.49938941,55 L47.4998808,55 C48.1955298,55 48.8620377,54.7093371 49.3335248,54.1989958 L49.3335248,54.1989958 Z" id="illus/illus-shop-suuccess" fill="#000000"></path>
                <g id="illus/illus-success" transform="translate(31.000000, 0.000000)">
                    <circle id="Combined-Shape" fill="#FF3B66" cx="12" cy="12" r="12"></circle>
                    <path d="M14.4682251,7.68 L16.1652814,9.37705627 L13.62,11.923 L16.1652814,14.4682251 L14.4682251,16.1652814 L11.923,13.62 L9.37705627,16.1652814 L7.68,14.4682251 L10.226,11.923 L7.68,9.37705627 L9.37705627,7.68 L11.923,10.226 L14.4682251,7.68 Z" id="Combined-Shape" fill="#FFFFFF"></path>
                </g>
            </g>
        </g>
    </g>
</svg>