<?xml version="1.0" encoding="UTF-8"?>
<svg width="59px" height="51px" viewBox="0 0 59 51" version="1.1" xmlns="http://www.w3.org/2000/svg" xmlns:xlink="http://www.w3.org/1999/xlink">
    <title>illust/illust-email-suuccess</title>
    <g id="Symbols" stroke="none" stroke-width="1" fill="none" fill-rule="evenodd">
        <g id="illust/illust-email-suuccess" transform="translate(0.000000, 5.000000)">
            <g transform="translate(0.000000, -5.000000)">
                <path d="M45.4549777,19.844902 L25,28.048987 L4.54570155,19.844902 L4.54570155,14.5547991 L45.4549777,14.5547991 L45.4549777,19.844902 Z M45.4549777,46.4452009 L4.54570155,46.4452009 L4.54570155,24.7537363 L24.1556624,32.6174029 C24.427372,32.7263368 24.7140256,32.7808037 25,32.7808037 C25.2866536,32.7808037 25.572628,32.7263368 25.8443376,32.6174029 L45.4549777,24.7537363 L45.4549777,46.4452009 Z M47.7271492,10 L2.27285078,10 C1.01823171,10 0,11.014447 0,12.2739954 L0,48.7260046 C0,49.9787446 1.01823171,51 2.27285078,51 L47.7271492,51 C48.9824476,51 50,49.9787446 50,48.7260046 L50,21.4380604 C50,21.4312521 50,21.4312521 50,21.4312521 L50,12.2739954 C50,11.014447 48.9824476,10 47.7271492,10 L47.7271492,10 Z" id="Fill-104" fill="#000000"></path>
                <g id="illus/illus-success" transform="translate(35.000000, 0.000000)">
                    <circle id="Combined-Shape" fill="#6BBA56" cx="12" cy="12" r="12"></circle>
                    <path d="M16.1455844,8.4 L17.8426407,10.0970563 L11.0544156,16.8852814 L11.042,16.873 L10.7882251,17.1279221 L6.4,12.739697 L8.09705627,11.0426407 L10.8,13.745 L16.1455844,8.4 Z" id="Combined-Shape" fill="#FFFFFF"></path>
                </g>
            </g>
        </g>
    </g>
</svg>